HIERARCHY
ROOT Hips
{
	OFFSET -0.001795 -0.223333 0.028219
	CHANNELS 6 Xposition Yposition Zposition Zrotation Yrotation Xrotation 
	JOINT LeftUpLeg
	{
		OFFSET 0.069520 -0.091406 -0.006815
		CHANNELS 3 Zrotation Yrotation Xrotation
		JOINT LeftLeg
		{
			OFFSET 0.034277 -0.375199 -0.004496
			CHANNELS 3 Zrotation Yrotation Xrotation
			JOINT LeftFoot
			{
				OFFSET -0.013596 -0.397961 -0.043693
				CHANNELS 3 Zrotation Yrotation Xrotation
				JOINT LeftToe
				{
					OFFSET 0.026358 -0.055791 0.119288
					CHANNELS 3 Zrotation Yrotation Xrotation
					End Site
					{
						OFFSET 0.000000 0.000000 0.000000
					}
				}
			}
		}
	}
	JOINT RightUpLeg
	{
		OFFSET -0.067670 -0.090522 -0.004320
		CHANNELS 3 Zrotation Yrotation Xrotation
		JOINT RightLeg
		{
			OFFSET -0.038290 -0.382569 -0.008850
			CHANNELS 3 Zrotation Yrotation Xrotation
			JOINT RightFoot
			{
				OFFSET 0.015774 -0.398415 -0.042312
				CHANNELS 3 Zrotation Yrotation Xrotation
				JOINT RightToe
				{
					OFFSET -0.025372 -0.048144 0.123348
					CHANNELS 3 Zrotation Yrotation Xrotation
					End Site
					{
						OFFSET 0.000000 0.000000 0.000000
					}
				}
			}
		}
	}
	JOINT Spine
	{
		OFFSET -0.002533 0.108963 -0.026696
		CHANNELS 3 Zrotation Yrotation Xrotation
		JOINT Spine1
		{
			OFFSET 0.005487 0.135180 0.001092
			CHANNELS 3 Zrotation Yrotation Xrotation
			JOINT Spine2
			{
				OFFSET 0.001457 0.052922 0.025425
				CHANNELS 3 Zrotation Yrotation Xrotation
				JOINT Neck
				{
					OFFSET -0.002778 0.213870 -0.042857
					CHANNELS 3 Zrotation Yrotation Xrotation
					JOINT Head
					{
						OFFSET 0.005152 0.064970 0.051349
						CHANNELS 3 Zrotation Yrotation Xrotation
						End Site
						{
							OFFSET 0.000000 0.000000 0.000000
						}
					}
				}
				JOINT LeftShoulder
				{
					OFFSET 0.078845 0.121749 -0.034090
					CHANNELS 3 Zrotation Yrotation Xrotation
					JOINT LeftArm
					{
						OFFSET 0.090977 0.030469 -0.008868
						CHANNELS 3 Zrotation Yrotation Xrotation
						JOINT LeftForeArm
						{
							OFFSET 0.259612 -0.012772 -0.027456
							CHANNELS 3 Zrotation Yrotation Xrotation
							JOINT LeftHand
							{
								OFFSET 0.249234 0.008986 -0.001171
								CHANNELS 3 Zrotation Yrotation Xrotation
								End Site
								{
									OFFSET 0.000000 0.000000 0.000000
								}
							}
						}
					}
				}
				JOINT RightShoulder
				{
					OFFSET -0.081759 0.118833 -0.038615
					CHANNELS 3 Zrotation Yrotation Xrotation
					JOINT RightArm
					{
						OFFSET -0.096012 0.032551 -0.009143
						CHANNELS 3 Zrotation Yrotation Xrotation
						JOINT RightForeArm
						{
							OFFSET -0.253742 -0.013329 -0.021401
							CHANNELS 3 Zrotation Yrotation Xrotation
							JOINT RightHand
							{
								OFFSET -0.255298 0.007772 -0.005559
								CHANNELS 3 Zrotation Yrotation Xrotation
								End Site
								{
									OFFSET 0.000000 0.000000 0.000000
								}
							}
						}
					}
				}
			}
		}
	}
}
MOTION
Frames: 15
Frame Time: 0.050000
0.000000 0.949993 0.000000 -0.878232 0.624689 2.113072 5.724792 -0.208765 -2.536549 -5.604805 0.556481 -2.907292 -2.165539 0.169581 9.677702 0.000000 0.000000 0.000000 -3.069981 0.381224 -4.060687 2.598308 -0.265063 0.767170 -3.133010 -10.099620 8.465323 0.000000 0.000000 0.000000 -2.145483 0.009621 0.986914 4.640503 -0.955164 -17.189133 -0.433869 -0.887281 26.549199 0.218413 1.457249 -27.402665 0.000000 0.000000 0.000000 -33.551362 -8.289236 3.812728 -42.423693 -4.231275 -5.527348 -8.654437 -53.147773 7.408020 0.000000 0.000000 0.000000 26.807432 13.879936 6.945397 47.731937 3.326900 -5.296813 -2.339984 56.747301 1.775819 0.000000 0.000000 0.000000 
-0.000064 0.949196 0.000676 -0.927017 -0.277876 3.025574 5.958931 -0.217482 -2.759108 -5.986918 0.579490 -3.977712 -1.743766 0.862102 9.830332 0.000000 0.000000 0.000000 -3.563257 0.401107 -4.213931 3.484805 -0.371730 -0.889949 -2.677407 -9.305627 8.665328 0.000000 0.000000 0.000000 -2.559366 0.060354 -0.728411 4.239745 -0.816989 -17.649755 0.235378 -0.522216 27.786981 1.388737 0.824245 -28.288028 0.000000 0.000000 0.000000 -32.829241 -8.543953 4.200955 -43.689345 -4.766695 -5.660867 -8.542161 -56.853958 8.202069 0.000000 0.000000 0.000000 26.089621 13.752710 6.793291 48.015283 4.174927 -5.110810 -2.547531 61.009016 1.940417 0.000000 0.000000 0.000000 
-0.000092 0.949741 0.001484 -0.860969 0.098339 3.223407 6.068152 -0.236599 -3.086851 -6.263761 0.597687 -3.795392 -1.951091 0.616218 10.019590 0.000000 0.000000 0.000000 -3.585423 0.427182 -4.605946 3.426581 -0.364223 -0.400980 -2.866346 -9.661295 8.706773 0.000000 0.000000 0.000000 -2.202601 0.073270 -1.475239 4.453700 -0.873318 -17.630558 -0.629043 -0.632223 28.355015 1.744328 0.632855 -28.186961 0.000000 0.000000 0.000000 -32.650153 -8.666784 4.246047 -42.490390 -4.724700 -5.567729 -12.210818 -60.593788 10.989107 0.000000 0.000000 0.000000 25.918762 13.995783 6.991916 47.783646 6.305238 -4.350834 -4.854217 64.656646 0.764190 0.000000 0.000000 0.000000 
-0.000279 0.950313 0.002517 -0.789671 -0.134281 3.634952 6.243392 -0.251168 -3.460246 -6.693365 0.634045 -3.767042 -1.886195 0.807519 10.288929 0.000000 0.000000 0.000000 -3.644712 0.452810 -4.918219 3.385139 -0.359493 -0.590395 -2.756041 -9.500198 8.873870 0.000000 0.000000 0.000000 -2.757276 0.100429 -2.640380 4.812309 -0.977506 -17.718419 -0.523471 -0.827984 28.598309 1.730430 0.544959 -27.646817 0.000000 0.000000 0.000000 -33.503986 -8.716112 4.462564 -41.747037 -3.840734 -5.802156 -17.183293 -65.082771 15.285130 0.000000 0.000000 0.000000 25.661306 14.920761 7.417470 47.366534 6.482816 -4.212754 -6.918233 71.715040 -0.644016 0.000000 0.000000 0.000000 
-0.000666 0.951089 0.003855 -0.728219 -0.475142 3.409376 6.083275 -0.227139 -2.983463 -6.519575 0.623460 -3.926214 -1.791291 1.005667 10.469301 0.000000 0.000000 0.000000 -3.602960 0.410143 -4.291065 3.209904 -0.346612 -1.190290 -2.532526 -9.137044 9.081700 0.000000 0.000000 0.000000 -2.689444 0.099193 -2.617241 4.841038 -1.017179 -17.422345 -0.558964 -0.605366 28.115478 1.779097 0.507648 -27.352632 0.000000 0.000000 0.000000 -33.325594 -8.761856 4.457520 -41.514728 -3.627916 -5.787711 -25.013186 -68.378297 21.722166 0.000000 0.000000 0.000000 26.200884 14.863345 7.392665 45.905732 8.374506 -3.384671 -9.499223 76.033491 -2.764144 0.000000 0.000000 0.000000 
-0.001200 0.951488 0.005268 -0.675345 -0.646173 3.314721 5.882563 -0.216023 -2.747956 -6.226358 0.603815 -3.948449 -1.726829 1.111800 10.504363 0.000000 0.000000 0.000000 -3.667786 0.391133 -4.012901 3.268958 -0.352784 -1.376164 -2.430574 -8.959793 9.123456 0.000000 0.000000 0.000000 -2.825126 0.101589 -2.812426 4.705746 -0.958524 -17.730326 -0.343002 -0.772098 28.443874 1.573702 0.589951 -27.610810 0.000000 0.000000 0.000000 -32.734498 -8.781064 4.615699 -41.666064 -3.829774 -5.812744 -33.625814 -69.836702 28.750956 0.000000 0.000000 0.000000 25.652477 15.727498 7.789051 45.622930 10.158707 -2.736038 -19.513881 79.339554 -11.222070 0.000000 0.000000 0.000000 
-0.001871 0.951650 0.006523 -0.622109 -0.959290 3.059398 5.891277 -0.199572 -2.524337 -6.296610 0.622023 -3.623177 -1.585981 1.293680 10.433301 0.000000 0.000000 0.000000 -3.682036 0.358977 -3.545481 3.242118 -0.351107 -1.633430 -2.266902 -8.654651 9.086500 0.000000 0.000000 0.000000 -2.935759 0.099303 -2.785928 4.696406 -0.983135 -17.468414 -0.129911 -0.450800 28.147842 1.689507 0.540861 -27.460636 0.000000 0.000000 0.000000 -32.424534 -8.840298 4.574127 -41.571549 -3.702278 -5.797156 -42.270590 -71.528088 36.267687 0.000000 0.000000 0.000000 25.856032 16.024943 8.021416 44.499082 11.503647 -2.219926 -31.360999 81.551483 -21.944739 0.000000 0.000000 0.000000 
-0.002551 0.951803 0.007587 -0.601377 -1.625814 3.085585 5.817321 -0.198162 -2.685474 -6.190888 0.634745 -3.101211 -1.232772 1.780722 10.310194 0.000000 0.000000 0.000000 -3.754296 0.368489 -3.617380 3.340527 -0.354056 -1.590391 -1.979438 -8.123043 9.002052 0.000000 0.000000 0.000000 -2.979623 0.105456 -3.021668 4.630561 -0.971563 -17.546924 0.021735 -0.099939 28.350094 1.801213 0.507305 -28.018323 0.000000 0.000000 0.000000 -31.887041 -8.650819 4.485674 -41.706802 -4.310654 -5.657344 -46.621222 -72.484942 40.446432 0.000000 0.000000 0.000000 25.666905 16.460060 8.248498 43.674830 13.249308 -1.622215 -47.495999 82.119790 -36.463959 0.000000 0.000000 0.000000 
-0.003101 0.952045 0.008494 -0.661893 -1.898854 3.118912 5.683753 -0.202486 -2.833334 -5.804765 0.611464 -2.725252 -1.057189 2.011164 10.194563 0.000000 0.000000 0.000000 -3.667204 0.382483 -3.795736 3.337054 -0.348552 -1.292946 -1.874596 -7.921834 8.937148 0.000000 0.000000 0.000000 -2.994213 0.113073 -3.389805 4.668023 -0.997418 -17.423323 0.241545 0.263835 28.389644 2.087499 0.378500 -27.952187 0.000000 0.000000 0.000000 -31.400428 -8.884058 4.553280 -42.290138 -4.798456 -5.549095 -47.679121 -73.066077 41.729678 0.000000 0.000000 0.000000 25.229953 16.642424 8.387299 42.490789 15.139891 -1.019660 -63.076234 80.244509 -49.031312 0.000000 0.000000 0.000000 
-0.003431 0.952144 0.009413 -0.716920 -2.233665 3.226505 5.587742 -0.202628 -2.875646 -5.531097 0.591733 -2.660270 -0.870406 2.275231 10.137810 0.000000 0.000000 0.000000 -3.573027 0.382133 -3.751719 3.278530 -0.343587 -1.549290 -1.710098 -7.641316 8.986338 0.000000 0.000000 0.000000 -2.908179 0.130872 -4.169045 4.640422 -1.020460 -17.089013 0.238729 0.293072 28.602522 2.125307 0.347377 -28.215705 0.000000 0.000000 0.000000 -31.349224 -8.850477 4.619617 -42.340398 -5.300105 -5.431555 -47.275826 -73.455976 41.747680 0.000000 0.000000 0.000000 24.778665 17.366788 8.719787 40.927062 17.247457 -0.369278 -75.698001 76.528044 -57.263931 0.000000 0.000000 0.000000 
-0.003530 0.952558 0.010537 -0.795198 -2.412210 3.381063 5.569919 -0.206487 -2.966788 -5.359481 0.578481 -2.618434 -0.780103 2.426952 10.186687 0.000000 0.000000 0.000000 -3.555590 0.384706 -3.754705 3.386274 -0.353144 -1.756107 -1.596267 -7.479813 9.144818 0.000000 0.000000 0.000000 -2.824920 0.141571 -4.515631 4.589029 -1.007471 -17.098990 0.322491 0.295122 28.523616 2.294367 0.250780 -28.354221 0.000000 0.000000 0.000000 -30.845947 -9.064480 4.805038 -42.973770 -5.753450 -5.360974 -42.408595 -73.881041 38.159563 0.000000 0.000000 0.000000 23.758696 17.624091 8.712708 38.912331 19.990370 0.403314 -79.635562 71.044189 -55.871221 0.000000 0.000000 0.000000 
-0.003422 0.952733 0.011943 -0.878306 -2.728490 3.557173 5.637238 -0.202564 -2.937369 -5.371562 0.581830 -2.761467 -0.634299 2.656808 10.229076 0.000000 0.000000 0.000000 -3.562985 0.392922 -3.823323 3.506652 -0.361208 -1.883948 -1.440699 -7.221004 9.208930 0.000000 0.000000 0.000000 -2.569972 0.159744 -4.972115 4.605943 -1.009098 -17.220480 0.148874 0.213947 28.621623 2.221834 0.260947 -28.580447 0.000000 0.000000 0.000000 -31.057007 -8.922840 4.855512 -42.550774 -5.878897 -5.324205 -37.084413 -73.584142 33.744734 0.000000 0.000000 0.000000 22.156207 17.917500 8.607765 36.637155 23.370317 1.228752 -82.228647 63.580117 -51.361309 0.000000 0.000000 0.000000 
-0.003253 0.953220 0.013730 -1.074583 -3.256335 3.536280 5.507135 -0.188860 -2.734053 -4.859181 0.540936 -2.711243 -0.358806 3.056393 10.176920 0.000000 0.000000 0.000000 -3.453199 0.391139 -3.764036 3.608274 -0.364554 -1.846351 -1.171847 -6.770948 9.301526 0.000000 0.000000 0.000000 -2.192492 0.180132 -5.293500 4.657812 -1.028866 -17.352029 -0.020112 0.357571 28.441115 2.885830 -0.133269 -28.470934 0.000000 0.000000 0.000000 -30.390981 -9.064519 5.014943 -43.034670 -5.679479 -5.446072 -29.166642 -72.775996 27.185750 0.000000 0.000000 0.000000 20.317248 18.054256 8.407614 33.646525 27.702351 2.079557 -80.385054 55.091618 -42.563381 0.000000 0.000000 0.000000 
-0.003076 0.953264 0.015917 -1.063269 -3.543098 3.561379 5.490015 -0.179677 -2.588660 -4.922032 0.550300 -2.689339 -0.222329 3.244800 10.130572 0.000000 0.000000 0.000000 -3.505574 0.394594 -3.784110 3.612603 -0.361165 -1.671301 -1.065095 -6.549892 9.185595 0.000000 0.000000 0.000000 -1.812945 0.197728 -5.501101 4.422557 -0.930352 -17.859651 -0.277891 0.306872 28.654225 3.047647 -0.224621 -28.950556 0.000000 0.000000 0.000000 -30.162982 -8.886501 5.008727 -42.881346 -5.323930 -5.596086 -22.620174 -71.599569 21.757707 0.000000 0.000000 0.000000 18.684955 18.247518 8.263452 29.943145 30.776158 2.255992 -79.842377 46.481245 -35.062453 0.000000 0.000000 0.000000 
-0.002943 0.953300 0.018338 -1.212943 -3.659742 3.492441 5.448373 -0.174139 -2.503207 -4.609485 0.523765 -2.372333 -0.112146 3.350227 9.897409 0.000000 0.000000 0.000000 -3.508709 0.383078 -3.616073 3.864270 -0.379792 -1.565339 -1.003380 -6.420804 9.137773 0.000000 0.000000 0.000000 -1.555438 0.208917 -5.612247 4.501454 -0.952326 -17.924731 -0.463044 0.374103 28.472608 3.639166 -0.543825 -28.900038 0.000000 0.000000 0.000000 -29.476502 -8.737948 4.873618 -43.178764 -4.390279 -5.911518 -17.791354 -69.225529 17.375626 0.000000 0.000000 0.000000 16.787901 17.952378 7.898171 26.640581 33.239629 2.186444 -78.570425 38.711095 -28.105342 0.000000 0.000000 0.000000 
